<?xml version="1.0" encoding="utf-8"?>
<!DOCTYPE svg PUBLIC "-//W3C//DTD SVG 1.1//EN" "http://www.w3.org/Graphics/SVG/1.1/DTD/svg11.dtd">
<svg version="1.1" xmlns="http://www.w3.org/2000/svg" xmlns:xlink="http://www.w3.org/1999/xlink" x="0px" y="0px" width="1024px" height="1024px" viewBox="0 0 1024 1024" enable-background="new 0 0 1024 1024" xml:space="preserve">
<metadata> Free Icon Download -- www.onlinewebfonts.com </metadata>

  <path fill="#C7C6E3" d="M162.739713 101.816641m-100.982078 0a12.1 12.1 0 1 0 201.964156 0 12.1 12.1 0 1 0 -201.964156 0Z" />
<path fill="#C7C6E3" d="M50.073758 556.644928l10.014752 0 0 200.295031c0 27.548912 22.533191 50.073758 50.073758 50.073758l105.154891 0c27.540567 0 50.073758-22.524845 50.073758-50.073758L265.390916 745.264428c-9.180189-17.534161-15.022127-37.555318-15.022127-58.419384l0-262.052665c0-50.90832 30.878817-95.14014 75.110637-114.33508l0-20.029503c0-27.540567-22.533191-50.073758-50.073758-50.073758L50.073758 240.354037c-27.540567 0-50.073758 22.533191-50.073758 50.073758l0 216.151721C0 534.120082 21.698628 556.644928 50.073758 556.644928z" />
<path fill="#C7C6E3" d="M862.103196 101.816641m-100.982078 0a12.1 12.1 0 1 0 201.964156 0 12.1 12.1 0 1 0 -201.964156 0Z" />
<path fill="#C7C6E3" d="M698.520575 289.593232l0 20.029503c44.240165 19.19494 75.110637 63.42676 75.110637 114.33508l0 261.218103c0 20.864066-5.007376 40.893569-15.013782 58.419384l0 11.683877c0 27.540567 22.524845 50.073758 50.073758 50.073758l105.154891 0c27.540567 0 50.073758-22.533191 50.073758-50.073758l0-200.295031 10.006406 0c27.548912 0 50.073758-22.533191 50.073758-50.073758L1024 289.593232c0-27.540567-22.524845-50.073758-50.073758-50.073758l-225.33191 0C721.062111 239.519474 698.520575 262.04432 698.520575 289.593232z" />
<path fill="#C7C6E3" d="M326.313988 424.784032 326.313988 424.784032l0 81.787138 0 180.265528c0 27.540567 22.533191 50.073758 50.073758 50.073758l19.19494 0 0 236.181224c0 27.540567 22.533191 50.073758 50.073758 50.073758l134.364583 0c27.540567 0 50.073758-22.533191 50.073758-50.073758l0-237.015787 19.19494 0c27.540567 0 50.073758-22.524845 50.073758-50.073758L699.363483 506.579516l0-81.787138 0 0c0-27.540567-22.533191-50.073758-50.073758-50.073758L376.387746 374.71862C348.012616 374.710275 326.313988 397.251811 326.313988 424.784032z" />
<path fill="#C7C6E3" d="M512.421454 216.986284m-116.004205 0a13.9 13.9 0 1 0 232.008411 0 13.9 13.9 0 1 0 -232.008411 0Z" />


</svg>